#!OML:ASF I:\Actors\actors\Patient Classification 2\Patient 1\Session 1\actor1.ASF
:FULLY-SPECIFIED
:DEGREES
146
root -1.03032 18.7952 5.05749 9.35926 -2.92551 -1.19015
lowerback 17.5013 2.52196 -9.93552
upperback 2.64604 1.0308 -5.19816
thorax -7.04257 0.676105 -0.235791
lowerneck -7.34179 -0.942309 5.68237
upperneck 29.1598 -5.66559 11.486
head 10.9164 -0.739868 2.54326
rclavicle -3.4191e-014 -2.8625e-014
rhumerus 17.1658 8.75866 -8.80804
rradius 105.769
rwrist -67.181
rhand 27.4547 -50.9207
rfingers 7.12502
rthumb 51.4047 -71.3734
lclavicle -3.4191e-014 -2.8625e-014
lhumerus -55.3362 5.23745 76.7627
lradius 54.9472
lwrist 32.1827
lhand -18.5514 -19.5465
lfingers 7.12502
lthumb 7.73816 10.292
rfemur 0 0 0
rtibia 0
rfoot 0 0
rtoes 0
lfemur -15.5683 -5.58017 -10.3974
ltibia 22.8958
lfoot -19.3874 15.0396
ltoes -55.8456
147
root -1.0582 18.7967 5.03583 9.55456 -2.08038 -1.28409
lowerback 17.7709 2.76469 -9.59458
upperback 2.64454 1.38715 -5.05583
thorax -7.21173 0.846381 -0.367156
lowerneck -7.12308 -1.31234 5.79443
upperneck 28.7774 -6.11904 11.4984
head 10.7439 -0.955803 2.46781
rclavicle 3.18055e-015 -1.74931e-014
rhumerus 18.8089 11.4503 -7.87872
rradius 103.269
rwrist -65.216
rhand 26.0111 -51.5436
rfingers 7.12502
rthumb 50.0878 -72.7201
lclavicle 3.18055e-015 -1.74931e-014
lhumerus -55.399 6.20276 76.7741
lradius 54.8908
lwrist 33.7108
lhand -18.205 -18.5998
lfingers 7.12502
lthumb 8.07246 11.226
rfemur 0 0 0
rtibia 0
rfoot 0 0
rtoes 0
lfemur -16.1066 -5.85868 -10.059
ltibia 22.9517
lfoot -19.0325 14.7472
ltoes -56.0984
148
root -1.08242 18.7985 5.01521 9.75265 -1.25623 -1.31194
lowerback 18.0476 3.02225 -9.27616
upperback 2.62746 1.75752 -4.92397
thorax -7.40027 1.02373 -0.505213
lowerneck -7.09118 -1.73512 5.14089
upperneck 28.5829 -6.77217 12.2798
head 10.7403 -1.24373 2.79058
rclavicle 1.59028e-014 -6.67916e-014
rhumerus 20.3596 13.9962 -7.02584
rradius 100.614
rwrist -62.5128
rhand 25.2136 -51.9408
rfingers 7.12502
rthumb 49.3572 -73.4946
lclavicle 1.59028e-014 -6.67916e-014
lhumerus -55.3205 7.249 76.7645
lradius 54.7188
lwrist 35.3704
lhand -17.9031 -17.6225
lfingers 7.12502
lthumb 8.36386 12.1919
rfemur 0 0 0
rtibia 0
rfoot 0 0
rtoes 0
lfemur -16.6625 -5.98014 -9.82424
ltibia 23.024
lfoot -18.598 14.3432
ltoes -56.3774
149
root -1.10464 18.7993 4.9949 9.98716 -0.428154 -1.34595
lowerback 18.2632 3.32615 -8.91549
upperback 2.65954 2.20957 -4.8172
thorax -7.50086 1.23485 -0.712637
lowerneck -7.04993 -2.22674 4.92439
upperneck 28.0525 -7.47202 12.7888
head 10.598 -1.55773 2.92167
rclavicle -1.27222e-014 3.81667e-014
rhumerus 21.6331 16.2951 -6.37542
rradius 97.9091
rwrist -59.7553
rhand 23.5059 -52.3362
rfingers 7.12502
rthumb 47.786 -74.6483
lclavicle -1.27222e-014 3.81667e-014
lhumerus -55.2143 8.21982 76.7205
lradius 54.7838
lwrist 37.2371
lhand -17.4598 -16.9013
lfingers 7.12502
lthumb 8.79161 12.8956
rfemur 0 0 0
rtibia 0
rfoot 0 0
rtoes 0
lfemur -17.2676 -6.18163 -9.57342
ltibia 23.0936
lfoot -18.2138 13.9602
ltoes -56.5646
150
root -1.12502 18.7995 4.9771 10.1927 0.404001 -1.39338
lowerback 18.4922 3.62399 -8.55528
upperback 2.65732 2.65482 -4.65961
thorax -7.64396 1.44429 -0.868351
lowerneck -6.94793 -2.70915 4.64656
upperneck 27.6404 -8.12487 13.1907
head 10.4874 -1.86462 3.03365
rclavicle 1.19271e-014 3.18055e-015
rhumerus 22.7842 18.5569 -5.8432
rradius 95.2635
rwrist -57.3172
rhand 20.8636 -52.8816
rfingers 7.12502
rthumb 45.3387 -76.2465
lclavicle 1.19271e-014 3.18055e-015
lhumerus -55.294 9.33487 76.5928
lradius 54.9169
lwrist 39.0789
lhand -16.7682 -16.4555
lfingers 7.12502
lthumb 9.45897 13.3123
rfemur 0 0 0
rtibia 0
rfoot 0 0
rtoes 0
lfemur -17.8236 -6.52137 -9.30315
ltibia 23.1463
lfoot -17.9018 13.6818
ltoes -56.6918
151
root -1.14335 18.8003 4.96194 10.3726 1.21425 -1.39276
lowerback 18.715 3.92665 -8.21192
upperback 2.65712 3.10474 -4.51708
thorax -7.77809 1.65518 -1.03501
lowerneck -6.87065 -3.17123 4.28222
upperneck 27.2825 -8.75748 13.6473
head 10.4127 -2.16174 3.18426
rclavicle -6.67916e-014 -1.59028e-015
rhumerus 23.6834 20.6128 -5.59731
rradius 92.6168
rwrist -54.4441
rhand 18.3388 -53.2701
rfingers 7.12502
rthumb 42.9845 -77.5215
lclavicle -6.67916e-014 -1.59028e-015
lhumerus -55.2584 10.5125 76.3437
lradius 54.7212
lwrist 40.788
lhand -15.8015 -15.9766
lfingers 7.12502
lthumb 10.3916 13.7466
rfemur 0 0 0
rtibia 0
rfoot 0 0
rtoes 0
lfemur -18.3336 -6.80751 -9.10661
ltibia 23.1895
lfoot -17.6017 13.4062
ltoes -56.8307
